<svg width="128" height="128" viewBox="0 0 128 128" fill="none" xmlns="http://www.w3.org/2000/svg">
<circle cx="64" cy="64" r="64" fill="#5A4A3B"/>
<path fill-rule="evenodd" clip-rule="evenodd" d="M36.6794 37.3221C37.8434 33.5682 43.1566 33.5682 44.3206 37.3221L49.8018 55H55C59.9706 55 64 59.0294 64 64C64 59.0294 68.0294 55 73 55H78.1982L83.6794 37.3221C84.8433 33.5682 90.1566 33.5682 91.3206 37.3221L98.4498 60.3154C98.567 60.6932 98.6255 61.0718 98.6315 61.4427C98.8713 62.2534 99 63.1116 99 64V85C99 96.0457 90.0457 105 79 105H78H73H55H52H49C37.9543 105 29 96.0457 29 85V64C29 63.1116 29.1287 62.2534 29.3685 61.4428C29.3745 61.0718 29.433 60.6932 29.5502 60.3154L36.6794 37.3221Z" fill="#C4C4C4"/>
<rect x="36" y="23" width="56" height="64" rx="20" fill="#D9D9D9"/>
<path d="M80.3125 64.9375C80.4792 65.3542 80.5625 65.7917 80.5625 66.25C80.5625 66.6667 80.3542 67.1042 79.9375 67.5625C79.5625 68.0208 78.9167 68.25 78 68.25C77.125 68.25 76.4792 67.7708 76.0625 66.8125L72.75 58.875H55.3125L52.0625 66.8125C51.6458 67.7708 50.9792 68.25 50.0625 68.25C49.1875 68.25 48.5417 68.0208 48.125 67.5625C47.75 67.1042 47.5625 66.6667 47.5625 66.25C47.5625 65.7917 47.6458 65.3542 47.8125 64.9375L60.8125 34.125C61.3958 32.7083 62.3958 32 63.8125 32H64.3125C65.6875 32 66.6875 32.7083 67.3125 34.125L80.3125 64.9375ZM71 54.625L64.0625 37.9375L57.125 54.625H71Z" fill="#919191"/>
</svg>
